<svg width="30" height="30" viewBox="0 0 30 30" fill="none" xmlns="http://www.w3.org/2000/svg">
<g clip-path="url(#clip0_1432_1358)">
<path d="M29.4998 14.84C29.4998 6.64268 22.8955 -0.00219727 14.7498 -0.00219727C6.60041 -0.000353516 -0.00390625 6.64268 -0.00390625 14.8418C-0.00390625 22.2482 5.39091 28.3879 12.4414 29.5015V19.1304H8.69859V14.8418H12.4451V11.5692C12.4451 7.85033 14.6484 5.7964 18.0169 5.7964C19.632 5.7964 21.3191 6.08586 21.3191 6.08586V9.73649H19.4587C17.6279 9.73649 17.0563 10.8815 17.0563 12.0559V14.84H21.1458L20.4931 19.1285H17.0545V29.4996C24.105 28.386 29.4998 22.2463 29.4998 14.84Z" fill="white"/>
</g>
<defs>
<clipPath id="clip0_1432_1358">
<rect width="29.5" height="29.5" fill="white"/>
</clipPath>
</defs>
</svg>
