<svg width="30" height="30" viewBox="0 0 30 30" fill="none" xmlns="http://www.w3.org/2000/svg">
<path fill-rule="evenodd" clip-rule="evenodd" d="M9.16893 0.0860581C10.7418 0.0136494 11.2433 -0.00244141 15.2499 -0.00244141C19.2565 -0.00244141 19.758 0.0149903 21.3296 0.0860581C22.9011 0.157126 23.9738 0.407875 24.9125 0.771259C25.8953 1.14269 26.787 1.7233 27.5245 2.4742C28.2754 3.21036 28.8547 4.10072 29.2248 5.08494C29.5895 6.02357 29.8389 7.0963 29.9113 8.66515C29.9838 10.2407 29.9998 10.7422 29.9998 14.7475C29.9998 18.7541 29.9824 19.2556 29.9113 20.8285C29.8403 22.3973 29.5895 23.4701 29.2248 24.4087C28.8547 25.393 28.2745 26.2849 27.5245 27.0221C26.787 27.773 25.8953 28.3523 24.9125 28.7224C23.9738 29.0871 22.9011 29.3365 21.3323 29.4089C19.758 29.4813 19.2565 29.4974 15.2499 29.4974C11.2433 29.4974 10.7418 29.48 9.16893 29.4089C7.60008 29.3378 6.52736 29.0871 5.58872 28.7224C4.6044 28.3522 3.71256 27.772 2.97531 27.0221C2.22491 26.2855 1.64421 25.3941 1.2737 24.41C0.910316 23.4714 0.660908 22.3987 0.5885 20.8298C0.516091 19.2543 0.5 18.7528 0.5 14.7475C0.5 10.7409 0.517432 10.2394 0.5885 8.66783C0.659567 7.09629 0.910316 6.02357 1.2737 5.08494C1.64476 4.10083 2.2259 3.20944 2.97665 2.47286C3.71286 1.72263 4.60379 1.14194 5.58738 0.771259C6.52601 0.407875 7.59874 0.158467 9.16759 0.0860581H9.16893ZM21.2102 2.74104C19.6548 2.66998 19.1882 2.65523 15.2499 2.65523C11.3117 2.65523 10.8451 2.66998 9.28961 2.74104C7.85083 2.80675 7.07042 3.04677 6.55015 3.24925C5.86227 3.51743 5.37016 3.83522 4.85391 4.35147C4.36454 4.82756 3.98793 5.40714 3.75169 6.04771C3.54921 6.56798 3.30919 7.34838 3.24349 8.78717C3.17242 10.3426 3.15767 10.8093 3.15767 14.7475C3.15767 18.6857 3.17242 19.1523 3.24349 20.7078C3.30919 22.1466 3.54921 22.927 3.75169 23.4473C3.98769 24.0869 4.36448 24.6675 4.85391 25.1435C5.32993 25.6329 5.91054 26.0097 6.55015 26.2457C7.07042 26.4482 7.85083 26.6882 9.28961 26.7539C10.8451 26.825 11.3104 26.8397 15.2499 26.8397C19.1895 26.8397 19.6548 26.825 21.2102 26.7539C22.649 26.6882 23.4294 26.4482 23.9497 26.2457C24.6376 25.9775 25.1297 25.6597 25.6459 25.1435C26.1354 24.6675 26.5122 24.0869 26.7482 23.4473C26.9506 22.927 27.1907 22.1466 27.2564 20.7078C27.3274 19.1523 27.3422 18.6857 27.3422 14.7475C27.3422 10.8093 27.3274 10.3426 27.2564 8.78717C27.1907 7.34838 26.9506 6.56798 26.7482 6.04771C26.48 5.35983 26.1622 4.86772 25.6459 4.35147C25.1698 3.86213 24.5903 3.48553 23.9497 3.24925C23.4294 3.04677 22.649 2.80675 21.2102 2.74104ZM13.366 19.2945C14.4181 19.7325 15.5897 19.7916 16.6806 19.4617C17.7715 19.1319 18.714 18.4335 19.3472 17.4859C19.9804 16.5384 20.265 15.4003 20.1523 14.2662C20.0397 13.1321 19.5368 12.0723 18.7296 11.2678C18.215 10.7536 17.5928 10.3598 16.9077 10.1149C16.2227 9.86993 15.4919 9.77992 14.7679 9.85133C14.0439 9.92274 13.3447 10.1538 12.7207 10.5278C12.0967 10.9019 11.5634 11.4096 11.1592 12.0145C10.755 12.6194 10.49 13.3064 10.3831 14.026C10.2763 14.7456 10.3304 15.48 10.5414 16.1762C10.7524 16.8725 11.1152 17.5132 11.6036 18.0524C12.092 18.5916 12.6939 19.0158 13.366 19.2945ZM9.889 9.38656C10.593 8.68255 11.4288 8.1241 12.3486 7.74309C13.2684 7.36209 14.2543 7.16599 15.2499 7.16599C16.2455 7.16599 17.2314 7.36209 18.1512 7.74309C19.0711 8.1241 19.9068 8.68255 20.6109 9.38656C21.3149 10.0906 21.8733 10.9263 22.2543 11.8462C22.6353 12.766 22.8314 13.7519 22.8314 14.7475C22.8314 15.7431 22.6353 16.729 22.2543 17.6488C21.8733 18.5686 21.3149 19.4044 20.6109 20.1084C19.189 21.5302 17.2607 22.329 15.2499 22.329C13.2392 22.329 11.3108 21.5302 9.889 20.1084C8.46719 18.6866 7.66843 16.7582 7.66843 14.7475C7.66843 12.7367 8.46719 10.8084 9.889 9.38656ZM24.5129 8.29506C24.6873 8.13049 24.827 7.93259 24.9236 7.71308C25.0202 7.49356 25.0718 7.25689 25.0753 7.01709C25.0788 6.77728 25.0341 6.53921 24.944 6.31698C24.8538 6.09474 24.72 5.89285 24.5504 5.72326C24.3808 5.55368 24.1789 5.41984 23.9567 5.32968C23.7344 5.23952 23.4963 5.19486 23.2565 5.19836C23.0167 5.20186 22.7801 5.25343 22.5606 5.35003C22.341 5.44663 22.1431 5.5863 21.9786 5.76076C21.6585 6.10004 21.4833 6.55071 21.4901 7.01709C21.4969 7.48347 21.6852 7.92883 22.015 8.25865C22.3448 8.58846 22.7902 8.77675 23.2565 8.78355C23.7229 8.79035 24.1736 8.61512 24.5129 8.29506Z" fill="white"/>
</svg>
