<svg width="30" height="30" viewBox="0 0 30 30" fill="none" xmlns="http://www.w3.org/2000/svg">
<path fill-rule="evenodd" clip-rule="evenodd" d="M3.64805e-07 2.96092C3.64805e-07 2.30727 0.259661 1.6804 0.721859 1.2182C1.18406 0.756001 1.81093 0.496341 2.46458 0.496341H27.0326C27.3565 0.495812 27.6774 0.55918 27.9768 0.682816C28.2762 0.806452 28.5483 0.987929 28.7774 1.21686C29.0066 1.44578 29.1884 1.71767 29.3123 2.01694C29.4363 2.31621 29.5 2.63699 29.4998 2.96092V27.5289C29.5002 27.8529 29.4367 28.1738 29.3129 28.4732C29.1891 28.7726 29.0075 29.0447 28.7785 29.2739C28.5494 29.503 28.2775 29.6848 27.9781 29.8087C27.6788 29.9327 27.3579 29.9964 27.0339 29.9962H2.46458C2.14081 29.9962 1.82022 29.9324 1.52112 29.8085C1.22201 29.6845 0.950259 29.5029 0.721384 29.2739C0.49251 29.0449 0.310998 28.773 0.18722 28.4738C0.0634425 28.1747 -0.000175786 27.854 3.64805e-07 27.5303V2.96092ZM11.6766 11.7438H15.6711V13.7498C16.2477 12.5966 17.7227 11.5588 19.9392 11.5588C24.1885 11.5588 25.1956 13.8557 25.1956 18.0702V25.8769H20.8953V19.0303C20.8953 16.6301 20.3187 15.2758 18.8544 15.2758C16.823 15.2758 15.9782 16.736 15.9782 19.0303V25.8769H11.6766V11.7438ZM4.30161 25.6932H8.60323V11.5588H4.30161V25.6919V25.6932ZM9.2187 6.94876C9.22681 7.31707 9.16127 7.68329 9.02593 8.02593C8.89059 8.36857 8.68818 8.68072 8.43056 8.94407C8.17295 9.20742 7.86533 9.41666 7.52575 9.55951C7.18618 9.70236 6.82149 9.77594 6.45309 9.77594C6.08469 9.77594 5.72001 9.70236 5.38043 9.55951C5.04086 9.41666 4.73323 9.20742 4.47562 8.94407C4.21801 8.68072 4.01559 8.36857 3.88025 8.02593C3.74491 7.68329 3.67937 7.31707 3.68748 6.94876C3.7034 6.22582 4.00177 5.53785 4.51869 5.03219C5.0356 4.52653 5.72998 4.24338 6.45309 4.24338C7.17621 4.24338 7.87058 4.52653 8.3875 5.03219C8.90442 5.53785 9.20278 6.22582 9.2187 6.94876Z" fill="white"/>
</svg>
